<svg xmlns="http://www.w3.org/2000/svg" xmlns:xlink="http://www.w3.org/1999/xlink" width="114" height="27" viewBox="0 0 114 27">
    <defs>
        <path id="lw19e3d4ga" d="M0.036 0.049L10.253 0.049 10.253 25.477 0.036 25.477z"/>
        <path id="qhrlp06tkc" d="M0 0.049L11.918 0.049 11.918 25.477 0 25.477z"/>
    </defs>
    <g fill="none" fill-rule="evenodd">
        <g>
            <path fill="#000" fill-rule="nonzero" d="M114 5L114 19 113 19 113 5z"/>
            <g>
                <path fill="#000" d="M43.19 18.38L43.19 10.341 39.974 16.429 39.03 16.429 35.799 10.341 35.799 18.38 34.092 18.38 34.092 7.21 35.921 7.21 39.502 14.038 43.083 7.21 44.912 7.21 44.912 18.38zM55.358 14.038L53.626 9.24l-1.792 4.798h3.524zM52.882 7.21h1.488l4.253 11.17H56.83l-1.14-3.036h-4.16l-1.124 3.036H48.6l4.282-11.17zM63.966 10.514L63.966 18.38 62.304 18.38 62.304 7.21 63.61 7.21 69.637 15.265 69.637 7.226 71.314 7.226 71.314 18.38 69.934 18.38zM83.179 8.768L79.891 8.768 79.891 18.38 78.317 18.38 78.317 8.768 75.015 8.768 75.015 7.21 83.179 7.21zM86.88 18.38L88.507 18.38 88.507 7.21 86.88 7.21z"/>
                <g>
                    <path fill="#000" d="M99.11 13.082c-.282-.237-.627-.438-1.036-.603-.408-.165-.866-.315-1.373-.45-.413-.113-.775-.218-1.085-.316-.31-.098-.568-.212-.774-.34-.207-.13-.36-.28-.458-.45-.099-.17-.148-.388-.148-.657 0-.474.157-.845.472-1.114.314-.268.805-.402 1.472-.402.3 0 .594.036.88.108.287.073.55.165.79.279.239.113.447.235.626.363.068.05.128.098.184.145l.943-1.204c-.432-.351-.935-.645-1.507-.882-.573-.237-1.198-.356-1.874-.356-.516 0-.995.072-1.437.217-.441.144-.823.358-1.148.642-.323.283-.58.634-.767 1.052-.188.417-.282.895-.282 1.43 0 .434.063.803.19 1.107.127.304.312.57.557.797.244.227.551.42.922.58.371.16.805.312 1.303.456.432.124.817.243 1.155.356.338.114.625.24.86.379.234.14.415.302.542.487.127.186.19.418.19.697 0 .464-.17.814-.507 1.052-.338.237-.817.355-1.437.355-.385 0-.756-.049-1.113-.147-.357-.098-.688-.216-.993-.356-.305-.139-.573-.29-.803-.456-.078-.056-.148-.11-.214-.163l-1.032 1.2c.572.485 1.213.853 1.922 1.106.71.253 1.444.379 2.205.379.507 0 .981-.06 1.423-.178.44-.118.828-.304 1.162-.557.333-.253.596-.58.788-.982.193-.403.29-.882.29-1.44 0-.494-.078-.914-.233-1.26-.155-.345-.373-.637-.655-.874" transform="translate(0 .007)"/>
                    <g transform="translate(0 .007) translate(13.02)">
                        <mask id="m043wgqu9b" fill="#fff">
                            <use xlink:href="#lw19e3d4ga"/>
                        </mask>
                        <path fill="#3F9" d="M2.875 0.049L0.036 7.113 7.415 25.477 10.253 18.412z" mask="url(#m043wgqu9b)"/>
                    </g>
                    <g transform="translate(0 .007)">
                        <mask id="hrwju8jrzd" fill="#fff">
                            <use xlink:href="#qhrlp06tkc"/>
                        </mask>
                        <path fill="#000" d="M7.378 7.113L4.54 0.049 1.701 7.113 0 11.348 2.839 18.412 4.54 14.178 9.08 25.477 11.918 18.412z" mask="url(#hrwju8jrzd)"/>
                    </g>
                </g>
            </g>
        </g>
    </g>
</svg>
